# xmcd
#
# Track frame offsets:
#	150
#	14087
#	33660
#	52335
#	68310
#	89980
#	104005
#	129805
#	142550
#	157927
#
# Disc length: 2424 seconds
#
# Revision: 2
# Processed by: cddbd v1.5.2PL0 Copyright (c) Steve Scherf et al.
# Submitted via: audiograbber 1.83.01
#
DISCID=8509760a
DTITLE=Marius Müller-Westernhagen - Lausige Zeiten
DYEAR=1986
DGENRE=Deutsch-Rock
TTITLE0=Marius Müller-Westernhagen - Lausige Zeiten
TTITLE1=Marius Müller-Westernhagen - Wir Sitzen Alle In Einem Boot
TTITLE2=Marius Müller-Westernhagen - Es Tut Weh
TTITLE3=Marius Müller-Westernhagen - Berlin
TTITLE4=Marius Müller-Westernhagen - Mir Ist So Heiß
TTITLE5=Marius Müller-Westernhagen - Kannst Du Mir Vertrauen
TTITLE6=Marius Müller-Westernhagen - Kein Gefühl
TTITLE7=Marius Müller-Westernhagen - Sonntagskind
TTITLE8=Marius Müller-Westernhagen - Schrei
TTITLE9=Marius Müller-Westernhagen - Tanz Mit Mir
EXTD=
EXTT0=
EXTT1=
EXTT2=
EXTT3=
EXTT4=
EXTT5=
EXTT6=
EXTT7=
EXTT8=
EXTT9=
PLAYORDER=
